<?xml version="1.0" encoding="UTF-8" standalone="no"?>
<!-- Created with Inkscape (http://www.inkscape.org/) -->

<svg
   width="516.47583mm"
   height="64.556702mm"
   viewBox="0 0 516.47582 64.556702"
   version="1.1"
   id="svg1"
   xml:space="preserve"
   sodipodi:docname="name_only.svg"
   inkscape:version="1.3.2 (1:1.3.2+202311252150+091e20ef0f)"
   inkscape:export-filename="name_only.png"
   inkscape:export-xdpi="96"
   inkscape:export-ydpi="96"
   xmlns:inkscape="http://www.inkscape.org/namespaces/inkscape"
   xmlns:sodipodi="http://sodipodi.sourceforge.net/DTD/sodipodi-0.dtd"
   xmlns="http://www.w3.org/2000/svg"
   xmlns:svg="http://www.w3.org/2000/svg"><sodipodi:namedview
     id="namedview1"
     pagecolor="#ffffff"
     bordercolor="#000000"
     borderopacity="0.25"
     inkscape:showpageshadow="2"
     inkscape:pageopacity="0.0"
     inkscape:pagecheckerboard="0"
     inkscape:deskcolor="#d1d1d1"
     inkscape:document-units="mm"
     showgrid="false"
     showguides="true"
     inkscape:zoom="0.31040258"
     inkscape:cx="908.49761"
     inkscape:cy="169.13519"
     inkscape:window-width="1854"
     inkscape:window-height="1011"
     inkscape:window-x="0"
     inkscape:window-y="0"
     inkscape:window-maximized="1"
     inkscape:current-layer="layer4"
     inkscape:lockguides="false" /><defs
     id="defs1" /><g
     inkscape:groupmode="layer"
     id="layer4"
     inkscape:label="final_bg_white"
     transform="translate(-460.19305,255.62967)"><path
       style="font-size:89.0436px;line-height:1.5;font-family:Posterama2001W04-Regular;-inkscape-font-specification:'Posterama2001W04-Regular, Normal';text-align:center;letter-spacing:-2.97548px;word-spacing:-8.92644px;text-orientation:upright;text-anchor:middle;fill:#4f4f4f;stroke-width:7.4223"
       d="m 470.16594,-194.72377 q -0.71235,1.6028 -1.4247,2.137 -0.71235,0.5343 -2.13705,0.5343 h -4.63027 q -1.78087,0 -1.78087,-1.1576 0,-0.4452 0.44522,-1.5137 l 26.80212,-56.4537 q 1.33566,-2.7603 1.95896,-3.5617 0.62331,-0.8905 1.51374,-0.8905 0.8014,0 1.33566,0.8905 0.6233,0.8014 1.95896,3.5617 l 27.06925,56.4537 q 0.44522,1.0685 0.44522,1.5137 0,1.1576 -1.86992,1.1576 h -4.98644 q -1.42469,0 -2.13704,-0.5343 -0.62331,-0.5342 -1.4247,-2.137 l -20.56907,-44.3437 z m 65.23184,0.7123 q 0,1.1576 -0.44522,1.6028 -0.44522,0.3562 -1.51374,0.3562 h -4.98644 q -1.06853,0 -1.51374,-0.3562 -0.44522,-0.4452 -0.44522,-1.6028 v -58.4126 q 0,-1.1576 0.44522,-1.5137 0.44521,-0.4452 1.51374,-0.4452 h 17.00733 q 25.37742,0 25.37742,19.3224 0,6.4112 -3.20557,10.5962 -3.20557,4.096 -8.90436,6.055 l 15.3155,23.6856 q 0.71235,0.9794 0.71235,1.6918 0,0.5342 -0.53426,0.8014 -0.44522,0.1781 -1.4247,0.1781 h -5.25357 q -1.51374,0 -2.22609,-0.4453 -0.71235,-0.4452 -1.69183,-1.9589 l -16.38402,-26.0007 q -0.53426,-0.7124 -0.53426,-1.2466 0,-0.7124 1.33565,-0.8014 13.44558,-1.4247 13.44558,-12.0209 0,-6.055 -4.27409,-8.8153 -4.18505,-2.8494 -12.19897,-2.8494 h -8.54819 q -0.6233,0 -0.89043,0.2671 -0.17809,0.1781 -0.17809,0.8014 z m 72.97873,-5.5207 q 10.06193,0 17.89777,-6.4111 0.97948,-0.8014 1.51374,-0.8014 0.35617,0 0.71235,0.2671 0.35617,0.2671 0.6233,0.6233 l 2.58227,3.5618 q 0.44522,0.5342 0.44522,1.2466 0,0.3561 -0.26714,0.8014 -0.26713,0.3561 -0.80139,0.8013 -4.71931,4.007 -10.68523,6.2331 -5.87688,2.137 -12.37706,2.137 -8.72627,0 -16.02785,-4.096 -7.21253,-4.096 -11.48662,-11.3975 -4.18505,-7.3016 -4.18505,-16.3841 0,-9.1715 4.18505,-16.5621 4.27409,-7.3906 11.57566,-11.5756 7.39062,-4.2741 16.47307,-4.2741 6.41114,0 12.19897,2.2261 5.87688,2.226 10.41811,6.0549 0.89043,0.6233 0.89043,1.3357 0,0.6233 -0.53426,1.4247 l -2.58226,3.4727 q -0.71235,0.9795 -1.4247,0.9795 -0.53426,0 -1.51374,-0.7124 -3.82888,-2.9384 -8.28106,-4.6303 -4.45218,-1.6918 -9.34958,-1.6918 -6.32209,0 -11.57566,3.0275 -5.16453,3.0275 -8.19202,8.4591 -3.02748,5.4317 -3.02748,12.288 0,6.5893 2.93844,12.0209 3.02748,5.4317 8.19201,8.5482 5.25357,3.0275 11.66471,3.0275 z m 80.54744,5.5207 q 0,1.1576 -0.44521,1.6028 -0.44522,0.3562 -1.51374,0.3562 h -4.98645 q -1.06852,0 -1.51374,-0.3562 -0.44522,-0.4452 -0.44522,-1.6028 v -24.8431 q 0,-0.5343 -0.26713,-0.7124 -0.17808,-0.2671 -0.80139,-0.2671 h -29.47343 q -0.62331,0 -0.89044,0.2671 -0.17808,0.1781 -0.17808,0.7124 v 24.8431 q 0,1.1576 -0.44522,1.6028 -0.44522,0.3562 -1.51374,0.3562 h -4.98645 q -1.06852,0 -1.51374,-0.3562 -0.44521,-0.4452 -0.44521,-1.6028 v -58.4126 q 0,-1.1576 0.44521,-1.5137 0.44522,-0.4452 1.51374,-0.4452 h 4.98645 q 1.06852,0 1.51374,0.4452 0.44522,0.3561 0.44522,1.5137 v 23.1514 q 0,0.5342 0.17808,0.8013 0.26713,0.2672 0.89044,0.2672 h 29.47343 q 0.62331,0 0.80139,-0.2672 0.26713,-0.2671 0.26713,-0.8013 v -23.1514 q 0,-1.1576 0.44522,-1.5137 0.44522,-0.4452 1.51374,-0.4452 h 4.98645 q 1.06852,0 1.51374,0.4452 0.44521,0.3561 0.44521,1.5137 z m 21.60063,0 q 0,1.1576 -0.44522,1.6028 -0.44522,0.3562 -1.51374,0.3562 h -4.98644 q -1.06853,0 -1.51374,-0.3562 -0.44522,-0.4452 -0.44522,-1.6028 v -58.4126 q 0,-1.1576 0.44522,-1.5137 0.44521,-0.4452 1.51374,-0.4452 h 4.98644 q 1.06852,0 1.51374,0.4452 0.44522,0.3561 0.44522,1.5137 z m 26.94308,-0.4452 q -0.71235,1.5137 -1.33566,1.959 -0.53426,0.4452 -1.86991,0.4452 h -5.07549 q -0.97948,0 -1.42469,-0.1781 -0.44522,-0.2671 -0.44522,-0.8904 0,-0.4453 0.44522,-1.6028 l 22.70611,-51.2001 h -30.80908 q -1.15757,0 -1.60279,-0.4452 -0.44521,-0.4452 -0.44521,-1.6028 v -4.3631 q 0,-1.1576 0.44521,-1.6028 0.44522,-0.4452 1.60279,-0.4452 h 40.60388 q 2.31513,0 2.31513,1.3356 0,0.7124 -0.53426,1.959 z m 67.19095,-6.055 q 1.06853,0 1.51374,0.4453 0.44522,0.3561 0.44522,1.5137 v 4.5412 q 0,1.1576 -0.44522,1.6028 -0.44521,0.3562 -1.51374,0.3562 h -33.74752 q -1.06853,0 -1.51374,-0.3562 -0.44522,-0.4452 -0.44522,-1.6028 v -58.4126 q 0,-1.1576 0.44522,-1.5137 0.44521,-0.4452 1.51374,-0.4452 h 33.65848 q 1.06852,0 1.51374,0.4452 0.44522,0.3561 0.44522,1.5137 v 4.5412 q 0,1.1576 -0.44522,1.6028 -0.44522,0.3562 -1.51374,0.3562 h -25.64456 q -0.6233,0 -0.89043,0.2671 -0.17809,0.1781 -0.17809,0.7124 v 16.295 q 0,0.6233 0.17809,0.8904 0.26713,0.1781 0.89043,0.1781 h 22.61708 q 1.06852,0 1.51374,0.4452 0.44522,0.3562 0.44522,1.5137 v 4.4522 q 0,1.0685 -0.44522,1.5138 -0.44522,0.4452 -1.51374,0.4452 h -22.61708 q -0.6233,0 -0.89043,0.2671 -0.17809,0.1781 -0.17809,0.7124 v 16.7402 q 0,0.5342 0.17809,0.8013 0.26713,0.1781 0.89043,0.1781 z m 39.94358,0.9795 q 10.06193,0 17.89777,-6.4111 0.97948,-0.8014 1.51374,-0.8014 0.35617,0 0.71235,0.2671 0.35617,0.2671 0.6233,0.6233 l 2.58227,3.5618 q 0.44521,0.5342 0.44521,1.2466 0,0.3561 -0.26713,0.8014 -0.26713,0.3561 -0.80139,0.8013 -4.71931,4.007 -10.68523,6.2331 -5.87688,2.137 -12.37706,2.137 -8.72628,0 -16.02785,-4.096 -7.21253,-4.096 -11.48663,-11.3975 -4.18505,-7.3016 -4.18505,-16.3841 0,-9.1715 4.18505,-16.5621 4.2741,-7.3906 11.57567,-11.5756 7.39062,-4.2741 16.47307,-4.2741 6.41114,0 12.19897,2.2261 5.87688,2.226 10.4181,6.0549 0.89044,0.6233 0.89044,1.3357 0,0.6233 -0.53426,1.4247 l -2.58227,3.4727 q -0.71235,0.9795 -1.42469,0.9795 -0.53427,0 -1.51375,-0.7124 -3.82887,-2.9384 -8.28105,-4.6303 -4.45218,-1.6918 -9.34958,-1.6918 -6.32209,0 -11.57567,3.0275 -5.16453,3.0275 -8.19201,8.4591 -3.02748,5.4317 -3.02748,12.288 0,6.5893 2.93844,12.0209 3.02748,5.4317 8.19201,8.5482 5.25357,3.0275 11.66471,3.0275 z m 80.54746,5.5207 q 0,1.1576 -0.44522,1.6028 -0.44522,0.3562 -1.51374,0.3562 h -4.98644 q -1.06853,0 -1.51374,-0.3562 -0.44522,-0.4452 -0.44522,-1.6028 v -24.8431 q 0,-0.5343 -0.26713,-0.7124 -0.17809,-0.2671 -0.8014,-0.2671 h -29.47343 q -0.6233,0 -0.89043,0.2671 -0.17809,0.1781 -0.17809,0.7124 v 24.8431 q 0,1.1576 -0.44522,1.6028 -0.44522,0.3562 -1.51374,0.3562 h -4.98644 q -1.06853,0 -1.51374,-0.3562 -0.44522,-0.4452 -0.44522,-1.6028 v -58.4126 q 0,-1.1576 0.44522,-1.5137 0.44521,-0.4452 1.51374,-0.4452 h 4.98644 q 1.06852,0 1.51374,0.4452 0.44522,0.3561 0.44522,1.5137 v 23.1514 q 0,0.5342 0.17809,0.8013 0.26713,0.2672 0.89043,0.2672 h 29.47343 q 0.62331,0 0.8014,-0.2672 0.26713,-0.2671 0.26713,-0.8013 v -23.1514 q 0,-1.1576 0.44522,-1.5137 0.44521,-0.4452 1.51374,-0.4452 h 4.98644 q 1.06852,0 1.51374,0.4452 0.44522,0.3561 0.44522,1.5137 z m 9.84685,-11.4866 q 0.71235,-0.9795 1.33566,-0.9795 0.44521,0 1.33565,0.7124 8.10297,6.3221 16.29498,6.3221 4.096,0 7.12349,-1.1576 3.02748,-1.1576 4.63026,-3.2946 1.69183,-2.2261 1.69183,-5.0755 0,-2.7604 -1.33565,-4.5412 -1.33566,-1.7809 -4.36314,-3.0275 -2.93844,-1.3357 -8.3701,-2.7604 -6.41114,-1.6028 -10.59619,-3.7398 -4.096,-2.137 -6.41113,-5.5207 -2.22609,-3.4727 -2.22609,-8.6372 0,-5.6098 2.76035,-9.7058 2.76035,-4.096 7.47966,-6.233 4.80835,-2.2261 10.77428,-2.2261 11.21949,0 20.30194,7.0344 0.44521,0.3562 0.6233,0.7124 0.26713,0.2671 0.26713,0.6233 0,0.2671 -0.17808,0.6233 -0.17809,0.3562 -0.44522,0.8014 l -2.58227,3.8288 q -0.35617,0.5343 -0.71235,0.8014 -0.26713,0.1781 -0.6233,0.1781 -0.62331,0 -1.51374,-0.6233 -3.56175,-2.5822 -7.30158,-4.096 -3.73983,-1.5137 -7.92488,-1.5137 -3.38366,0 -6.05496,1.1575 -2.58227,1.0686 -4.09601,3.2056 -1.4247,2.048 -1.4247,4.8974 0,2.8494 1.4247,4.7193 1.51374,1.8699 4.36314,3.1165 2.93844,1.2467 7.92488,2.4933 6.85636,1.7808 11.0414,4.0069 4.2741,2.2261 6.3221,5.6098 2.13705,3.2946 2.13705,8.192 0,5.5207 -2.93844,9.7948 -2.93844,4.185 -8.10297,6.5002 -5.16453,2.2261 -11.8428,2.2261 -6.05496,0 -11.39758,-2.048 -5.25357,-2.048 -9.70575,-5.6098 -0.97948,-0.8904 -0.97948,-1.5137 0,-0.6233 0.6233,-1.5138 z"
       id="text12-7"
       aria-label="archi7ECHS" /></g></svg>
